<?xml version="1.0" encoding="iso-8859-1"?>
<!-- Generator: Adobe Illustrator 29.8.4, SVG Export Plug-In . SVG Version: 9.03 Build 0)  -->
<svg version="1.1" xmlns="http://www.w3.org/2000/svg" xmlns:xlink="http://www.w3.org/1999/xlink" x="0px" y="0px"
	 viewBox="0 0 1061.471 321.235" style="enable-background:new 0 0 1061.471 321.235;" xml:space="preserve">
<g id="Layer_2">
</g>
<g id="Layer_1" style="display:none;">
	<path style="display:inline;fill:none;stroke:#000000;stroke-width:3;stroke-opacity:0.3;" d="M882.783,61.314h187.18
		c3.8,0,6.9,3.1,6.9,6.84c0,4.22-2.3,8.12-6.03,10.03l-6.1,3.18l6.42,60.96l103.63,14.25c4.6,0.72,8.01,4.7,8.01,9.31v116.43h-39.64
		c-0.16-5.89-0.63-14.09-2.14-20.05c-6.03-24.36-32.59-43.46-60.41-43.46c-34.97,0-61.6,28.81-61.37,61.92h-136.45V61.314z"/>
	<path style="display:inline;fill:none;stroke:#000000;stroke-width:3;stroke-opacity:0.3;" d="M948.783,98.444
		c0.022-4.481,3.649-8.108,8.13-8.13h63.88c4.62,0,8.45,3.5,8.85,8.13l3.1,35.74c0.381,4.091-2.627,7.717-6.718,8.098
		c-0.227,0.021-0.454,0.032-0.682,0.032h-68.35c-4.481-0.022-8.108-3.649-8.13-8.13v-35.74H948.783z M1055.923,134.184l-3.03-35.74
		c-0.39-4.54-0.08-8.13,6.77-8.13h3.42c4.51,0,8.25,3.5,8.64,8.13l3.03,35.74c0.42,4.049-2.521,7.671-6.57,8.091
		c-0.223,0.023-0.446,0.036-0.67,0.039h-4.82C1057.793,142.234,1056.313,138.484,1055.923,134.184L1055.923,134.184z
		 M892.783,94.684c0.075-4.513,3.727-8.147,8.24-8.2l15.52-0.17c4.473-0.077,8.161,3.486,8.239,7.959
		c0,0.03,0.001,0.061,0.001,0.091v39.83c-0.055,4.508-3.731,8.131-8.24,8.12h-15.52c-4.509,0.011-8.185-3.612-8.24-8.12
		C892.783,134.194,892.783,94.684,892.783,94.684z M947.783,161.814c0,3.56,3.05,6.5,6.75,6.5h13.5c3.7,0,6.75-2.94,6.75-6.5
		s-3.05-6.5-6.75-6.5h-13.5c-3.627-0.1-6.648,2.76-6.748,6.387C947.784,161.739,947.784,161.776,947.783,161.814z"/>
	<path style="display:inline;fill:none;stroke:#000000;stroke-width:3;stroke-opacity:0.3;" d="M945.273,264.314h45.35
		c4.94,0,9.65-3.5,11-8.93c5.1-21.35,18.02-34.98,35.15-42.39c5.02-2.15,9.01-5.82,9.01-10.92v-59.28l-5.42-53.08
		c-0.538-5.324-5.009-9.381-10.36-9.4h-84.65c-5.275,0.016-9.548,4.285-9.57,9.56v164.88c-0.022,5.258,4.222,9.538,9.48,9.56
		C945.266,264.314,945.27,264.314,945.273,264.314z M225.783,209.314h-273v6h273V209.314z M468.783,241.314h-12.8
		c-4.5,0-8.2,3.68-8.2,8.16v1.68c0,4.48,3.7,8.16,8.2,8.16h12.8V241.314z M-65.217,241.314h-12.8c-4.5,0-8.2,3.68-8.2,8.16v1.68
		c0,4.48,3.7,8.16,8.2,8.16h12.8V241.314z M664.783,210.314h-101v5h101V210.314z"/>
	<path style="display:inline;fill:none;stroke:#000000;stroke-width:3;stroke-opacity:0.3;" d="M239.673,215.394
		c4.452,0,8.072,3.588,8.11,8.04v49.84c-0.038,4.452-3.658,8.04-8.11,8.04h-12.73v-0.32c0-33.74-27.6-61.1-61.64-61.1
		c-31.42,0-60.6,23.65-61.64,61.34h-19.89v-0.31c0-33.52-27.6-61.12-61.64-61.12c-31.33,0-60.52,23.58-61.64,61.43h-27.6
		c-4.452,0-8.072-3.588-8.11-8.04v-49.84c0-4.5,3.82-8.04,8.35-8.04C-26.937,215.394,131.663,215.394,239.673,215.394
		L239.673,215.394z M875.783,215.314h-38V37.424c0.066-4.518,3.762-8.138,8.28-8.11h21.44c4.518-0.028,8.214,3.592,8.28,8.11
		L875.783,215.314L875.783,215.314z"/>
	<path style="display:inline;fill:none;stroke:#000000;stroke-width:3;stroke-opacity:0.3;" d="M863.783,30.314h-14v-53.8
		c0-4,3.11-7.2,7-7.2s7,3.2,7,7.2V30.314z M465.063,215.314h410.72v66h-116.61v-0.32c0-33.79-27.62-61.18-61.69-61.18
		c-31.44,0-60.57,23.68-61.69,61.42h-19.9v-0.31c0-33.56-27.62-61.19-61.68-61.19c-31.36,0-60.58,23.6-61.7,61.5h-27.61
		c-4.457,0-8.082-3.593-8.12-8.05v-49.9C456.935,218.825,460.602,215.295,465.063,215.314z"/>
	<g style="display:inline;">
		<path style="fill:none;stroke:#000000;stroke-width:3;stroke-opacity:0.3;" d="M1168.783,282.314h43.83
			c4.47,0.011,8.115-3.58,8.17-8.05v-51.89c-0.055-4.47-3.7-8.061-8.17-8.05h-43.83V282.314z"/>
		<path style="fill:none;stroke:#000000;stroke-width:3;stroke-opacity:0.3;" d="M1194.823,214.314h-11.62v-47.45
			c0-1.74,2.4-2.14,3.05-0.56l5.53,13.66c2,4.98,3.04,10.2,3.04,15.56v18.8L1194.823,214.314z"/>
	</g>
	<g style="display:inline;">
		<path style="fill:none;stroke:#000000;stroke-width:3;stroke-opacity:0.3;" d="M807.783,292.194c0.005,4.478,3.622,8.113,8.1,8.14
			h94.8c4.45,0,8.1-3.67,8.1-8.14v-56.8c-0.011-4.474-3.626-8.103-8.1-8.13h-94.8c-4.474,0.027-8.089,3.656-8.1,8.13V292.194z"/>
		<path style="fill:none;stroke:#000000;stroke-width:3;stroke-opacity:0.3;" d="M830.093,301.284c0,2.761,2.239,5,5,5s5-2.239,5-5
			v-73.94c0-2.761-2.239-5-5-5s-5,2.239-5,5V301.284z M858.283,301.284c0,2.761,2.239,5,5,5s5-2.239,5-5v-73.94c0-2.761-2.239-5-5-5
			s-5,2.239-5,5V301.284z M886.543,301.284c0,2.761,2.239,5,5,5s5-2.239,5-5v-73.94c0-2.761-2.239-5-5-5s-5,2.239-5,5V301.284z"/>
	</g>
	<path style="display:inline;fill:none;stroke:#000000;stroke-width:3;stroke-opacity:0.3;" d="M761.783,207.094
		c0.011,4.498-3.603,8.165-8.1,8.22h-824.8c-4.497-0.055-8.111-3.722-8.1-8.22v-23.78h832.9c4.497,0.055,8.111,3.722,8.1,8.22
		V207.094z M1209.783,259.314c-5.523,0-10-4.477-10-10s4.477-10,10-10V259.314z"/>
	<g style="display:inline;">
		<path style="fill:none;stroke:#000000;stroke-width:3;stroke-opacity:0.3;" d="M1028.783,280.814
			c0.011,28.99,23.51,52.489,52.5,52.5c28.99-0.011,52.489-23.51,52.5-52.5c-0.011-28.99-23.51-52.489-52.5-52.5
			C1052.293,228.325,1028.794,251.823,1028.783,280.814z"/>
		<path style="fill:none;stroke:#000000;stroke-width:3;stroke-opacity:0.3;" d="M1045.733,280.814
			c-0.005,19.683,15.947,35.644,35.63,35.65s35.645-15.947,35.65-35.63c0.005-19.683-15.947-35.644-35.63-35.65
			c-0.007,0-0.013,0-0.02,0C1061.699,245.217,1045.766,261.15,1045.733,280.814z"/>
		<path style="fill:none;stroke:#000000;stroke-width:3;stroke-opacity:0.3;" d="M1052.613,280.814
			c0,15.834,12.836,28.67,28.67,28.67c15.834,0,28.67-12.836,28.67-28.67s-12.836-28.67-28.67-28.67
			C1065.449,252.144,1052.613,264.98,1052.613,280.814z"/>
		<path style="fill:none;stroke:#000000;stroke-width:3;stroke-opacity:0.3;" d="M1064.733,280.814
			c-0.003,9.138,7.402,16.547,16.54,16.55c9.137,0.003,16.547-7.402,16.55-16.54s-7.402-16.547-16.54-16.55
			C1072.146,264.271,1064.736,271.676,1064.733,280.814z"/>
	</g>
	<g style="display:inline;">
		<path style="fill:none;stroke:#000000;stroke-width:3;stroke-opacity:0.3;" d="M644.783,280.814
			c0.011,28.99,23.51,52.489,52.5,52.5c28.99-0.011,52.489-23.51,52.5-52.5c-0.011-28.99-23.51-52.489-52.5-52.5
			C668.293,228.325,644.794,251.823,644.783,280.814z"/>
		<path style="fill:none;stroke:#000000;stroke-width:3;stroke-opacity:0.3;" d="M661.733,280.814
			c-0.005,19.683,15.947,35.644,35.63,35.65s35.644-15.947,35.65-35.63c0.006-19.683-15.947-35.644-35.63-35.65
			c-0.007,0-0.013,0-0.02,0C677.699,245.217,661.766,261.15,661.733,280.814z"/>
		<path style="fill:none;stroke:#000000;stroke-width:3;stroke-opacity:0.3;" d="M668.613,280.814
			c0,15.834,12.836,28.67,28.67,28.67c15.834,0,28.67-12.836,28.67-28.67s-12.836-28.67-28.67-28.67
			C681.449,252.144,668.613,264.98,668.613,280.814z"/>
		<path style="fill:none;stroke:#000000;stroke-width:3;stroke-opacity:0.3;" d="M680.733,280.814
			c-0.003,9.138,7.402,16.547,16.54,16.55c9.138,0.003,16.547-7.402,16.55-16.54l0,0c0.003-9.138-7.402-16.547-16.54-16.55
			C688.146,264.271,680.736,271.676,680.733,280.814z"/>
	</g>
	<g style="display:inline;">
		<path style="fill:none;stroke:#000000;stroke-width:3;stroke-opacity:0.3;" d="M501.783,280.814
			c0.011,28.99,23.51,52.489,52.5,52.5c28.99-0.011,52.489-23.51,52.5-52.5c-0.011-28.99-23.51-52.489-52.5-52.5
			C525.293,228.325,501.794,251.823,501.783,280.814z"/>
		<path style="fill:none;stroke:#000000;stroke-width:3;stroke-opacity:0.3;" d="M518.653,280.814
			c-0.005,19.683,15.947,35.644,35.63,35.65s35.644-15.947,35.65-35.63c0.006-19.683-15.947-35.644-35.63-35.65
			c-0.007,0-0.013,0-0.02,0C534.63,245.244,518.714,261.161,518.653,280.814z"/>
		<path style="fill:none;stroke:#000000;stroke-width:3;stroke-opacity:0.3;" d="M525.613,280.814
			c0,15.834,12.836,28.67,28.67,28.67c15.834,0,28.67-12.836,28.67-28.67s-12.836-28.67-28.67-28.67
			C538.449,252.144,525.613,264.98,525.613,280.814z"/>
		<path style="fill:none;stroke:#000000;stroke-width:3;stroke-opacity:0.3;" d="M537.733,280.814
			c-0.003,9.138,7.402,16.547,16.54,16.55c9.138,0.003,16.547-7.402,16.55-16.54l0,0c0.003-9.138-7.402-16.547-16.54-16.55
			C545.146,264.271,537.736,271.676,537.733,280.814z"/>
	</g>
	<g style="display:inline;">
		<path style="fill:none;stroke:#000000;stroke-width:3;stroke-opacity:0.3;" d="M111.783,280.814
			c0.011,28.99,23.51,52.489,52.5,52.5c28.99-0.011,52.489-23.51,52.5-52.5c-0.011-28.99-23.51-52.489-52.5-52.5
			C135.293,228.325,111.794,251.823,111.783,280.814z"/>
		<path style="fill:none;stroke:#000000;stroke-width:3;stroke-opacity:0.3;" d="M128.653,280.814
			c-0.006,19.683,15.947,35.644,35.63,35.65s35.644-15.947,35.65-35.63c0.006-19.683-15.947-35.644-35.63-35.65
			c-0.007,0-0.013,0-0.02,0C144.63,245.244,128.714,261.161,128.653,280.814z"/>
		<path style="fill:none;stroke:#000000;stroke-width:3;stroke-opacity:0.3;" d="M135.613,280.814
			c0,15.834,12.836,28.67,28.67,28.67s28.67-12.836,28.67-28.67l0,0c0-15.834-12.836-28.67-28.67-28.67
			S135.613,264.98,135.613,280.814L135.613,280.814z"/>
		<path style="fill:none;stroke:#000000;stroke-width:3;stroke-opacity:0.3;" d="M147.653,280.814
			c-0.003,9.138,7.402,16.547,16.54,16.55c9.138,0.003,16.547-7.402,16.55-16.54l0,0c0.003-9.138-7.402-16.547-16.54-16.55
			C155.066,264.271,147.656,271.676,147.653,280.814z"/>
	</g>
	<g style="display:inline;">
		<path style="fill:none;stroke:#000000;stroke-width:3;stroke-opacity:0.3;" d="M-30.217,280.814
			c0.011,28.99,23.51,52.489,52.5,52.5c28.99-0.011,52.489-23.51,52.5-52.5c-0.011-28.99-23.51-52.489-52.5-52.5
			C-6.707,228.325-30.206,251.823-30.217,280.814z"/>
		<path style="fill:none;stroke:#000000;stroke-width:3;stroke-opacity:0.3;" d="M-13.267,280.814
			c-0.006,19.683,15.947,35.644,35.63,35.65s35.644-15.947,35.65-35.63c0.006-19.683-15.947-35.644-35.63-35.65
			c-0.007,0-0.013,0-0.02,0C2.699,245.217-13.234,261.15-13.267,280.814z"/>
		<path style="fill:none;stroke:#000000;stroke-width:3;stroke-opacity:0.3;" d="M-6.387,280.814c0,15.834,12.836,28.67,28.67,28.67
			s28.67-12.836,28.67-28.67s-12.836-28.67-28.67-28.67S-6.387,264.98-6.387,280.814z"/>
		<path style="fill:none;stroke:#000000;stroke-width:3;stroke-opacity:0.3;" d="M5.733,280.814
			c-0.003,9.138,7.402,16.547,16.54,16.55c9.138,0.003,16.547-7.402,16.55-16.54l0,0c0.003-9.138-7.402-16.547-16.54-16.55
			C13.146,264.271,5.736,271.676,5.733,280.814z"/>
	</g>
	
		<image style="display:inline;overflow:visible;" width="1536" height="1024" xlink:href="../rr.png"  transform="matrix(1 0 0 1 -1692.7966 -921.8574)">
	</image>
</g>
<g id="Layer_3">
	<g>
		<path style="fill:none;stroke:#FFFFFF;stroke-width:2;stroke-miterlimit:10;" d="M775.724,88.668v173.397
			c46.621,0,97.924,0,108.217,0c-0.185-26.173,20.957-48.943,48.699-48.943c22.105,0,43.143,15.101,47.948,34.342
			c1.188,4.736,1.576,11.188,1.685,15.869h31.44V171.35c0-3.686-2.7-6.827-6.34-7.389l-82.278-11.247l-5.093-48.169l4.866-2.505
			c2.96-1.525,4.823-4.609,4.799-7.935c-0.02-3.01-2.464-5.438-5.474-5.438H775.726H775.724z"/>
		<path style="fill:none;stroke:#FFFFFF;stroke-width:2;stroke-miterlimit:10;" d="M828.327,146.298
			c0,3.541,2.871,6.417,6.415,6.417h53.928c3.449,0,6.157-2.952,5.861-6.394l-2.433-28.172c-0.314-3.611-3.343-6.391-6.967-6.391
			h-50.389c-3.544,0-6.415,2.873-6.415,6.417V146.298z"/>
		<g>
			<path style="fill:none;stroke:#FFFFFF;stroke-width:2;stroke-miterlimit:10;" d="M918.414,152.715h3.91
				c3.454,0,6.16-2.952,5.864-6.394l-2.431-28.172c-0.316-3.611-3.343-6.391-6.968-6.391h-2.772c-5.519,0-5.8,2.78-5.486,6.391
				l2.431,28.172C913.259,149.763,914.46,152.715,918.414,152.715z"/>
		</g>
		<path style="fill:none;stroke:#FFFFFF;stroke-width:2;stroke-miterlimit:10;" d="M784.397,146.3c0,3.541,2.871,6.417,6.417,6.417
			h12.065c3.544,0,6.415-2.876,6.415-6.417V114.85c0-3.536-2.883-6.386-6.415-6.348l-12.065,0.128
			c-3.554,0.038-6.417,2.929-6.417,6.482V146.3z"/>
		<path style="fill:none;stroke:#FFFFFF;stroke-width:2;stroke-miterlimit:10;" d="M833.116,162.743h10.564
			c2.916,0,5.28,2.364,5.28,5.28c0,2.919-2.364,5.283-5.28,5.283h-10.564c-2.92,0-5.283-2.366-5.283-5.283
			C827.833,165.105,830.195,162.743,833.116,162.743z"/>
		<g>
			<path style="fill:none;stroke:#FFFFFF;stroke-width:2;stroke-miterlimit:10;" d="M817.833,241.094v-130.13
				c0-4.162,3.387-7.547,7.547-7.547h66.766c4.241,0,7.76,3.181,8.189,7.398l4.257,41.899v46.778c0,4.059-3.148,6.914-7.094,8.626
				c-13.495,5.862-23.686,16.6-27.73,33.486c-1.021,4.27-4.728,7.037-8.652,7.037h-35.788
				C821.2,248.642,817.834,245.258,817.833,241.094z"/>
		</g>
		
			<rect x="40.805" y="205.087" transform="matrix(-1 -4.490154e-11 4.490154e-11 -1 297.2495 414.7989)" style="fill:none;stroke:#FFFFFF;stroke-width:2;stroke-miterlimit:10;" width="215.639" height="4.625"/>
		<path style="fill:none;stroke:#FFFFFF;stroke-width:2;stroke-miterlimit:10;" d="M448.138,245.057h-10.011
			c-3.541,0-6.415-2.873-6.415-6.414v-1.317c0-3.541,2.875-6.415,6.415-6.415h10.011V245.057z"/>
		<path style="fill:none;stroke:#FFFFFF;stroke-width:2;stroke-miterlimit:10;" d="M26.044,245.057H16.031
			c-3.545,0-6.417-2.873-6.417-6.414v-1.317c0-3.541,2.871-6.415,6.417-6.415h10.013V245.057z"/>
		<g>
			<path style="fill:none;stroke:#FFFFFF;stroke-width:2;stroke-miterlimit:10;" d="M24.06,209.517
				c-3.595,0-6.608,2.819-6.608,6.414v39.775c0,3.544,2.871,6.417,6.417,6.417h21.816c0.846-30.208,23.935-49.003,48.718-49.003
				c26.893,0,48.718,21.991,48.718,48.722c0,0.074-0.01,0.147-0.01,0.221h15.734c0.826-30.073,23.889-48.943,48.72-48.943
				c26.904,0,48.713,21.813,48.713,48.722c0,0.074-0.003,0.147-0.003,0.221c4.485,0,7.037,0,10.034,0
				c3.541,0,6.407-2.875,6.407-6.414v-39.718c0-3.542-2.87-6.414-6.417-6.414C180.926,209.517,55.535,209.517,24.06,209.517z"/>
		</g>
		<path style="fill:none;stroke:#FFFFFF;stroke-width:2;stroke-miterlimit:10;" d="M770.204,210.193V69.501
			c0-3.542-2.871-6.415-6.415-6.415h-16.592c-3.545,0-6.417,2.873-6.417,6.415v140.692h29.422H770.204z"/>
		<path style="fill:none;stroke:#FFFFFF;stroke-width:2;stroke-miterlimit:10;" d="M761.158,63.426V21.168
			c0-3.128-2.538-5.666-5.666-5.666c-3.128,0-5.664,2.538-5.664,5.666v42.257H761.158L761.158,63.426z"/>
		<path style="fill:none;stroke:#FFFFFF;stroke-width:2;stroke-miterlimit:10;" d="M439.255,215.931v39.775
			c0,3.544,2.87,6.417,6.414,6.417h21.816c0.847-30.208,23.938-49.003,48.72-49.003c26.891,0,48.718,21.991,48.718,48.722
			c0,0.074-0.005,0.147-0.005,0.221h15.733c0.825-30.073,23.889-48.943,48.715-48.943c26.907,0,48.717,21.813,48.717,48.722
			c0,0.074-0.003,0.147-0.003,0.221c6.402,0,58.535,0,92.164,0v-52.545c-32.285,0-281.378,0-324.553,0
			C442.138,209.517,439.253,212.382,439.255,215.931z"/>
		<g>
			<path style="fill:none;stroke:#FFFFFF;stroke-width:2;stroke-miterlimit:10;" d="M1002.407,209.17h34.378
				c3.542,0,6.414,2.871,6.414,6.417v41.305c0,3.544-2.871,6.417-6.414,6.417h-34.378
				C1002.407,263.309,1002.407,209.17,1002.407,209.17z"/>
			<path style="fill:none;stroke:#FFFFFF;stroke-width:2;stroke-miterlimit:10;" d="M1022.795,194.135
				c0-4.233-0.808-8.437-2.382-12.371l-4.347-10.857c-0.506-1.266-2.384-0.905-2.384,0.458v37.806h9.113V194.135z"/>
		</g>
		<g>
			<path style="fill:none;stroke:#FFFFFF;stroke-width:2;stroke-miterlimit:10;" d="M716.108,226.492
				c0-3.542,2.87-6.414,6.414-6.414h75.099c3.542,0,6.415,2.871,6.415,6.414v44.779c0,3.539-2.873,6.414-6.415,6.414h-75.099
				c-3.544,0-6.414-2.875-6.414-6.414V226.492z"/>
			<g>
				<path style="fill:none;stroke:#FFFFFF;stroke-width:2;stroke-miterlimit:10;" d="M733.761,220.17
					c0-2.186,1.775-3.961,3.959-3.961c2.191,0,3.963,1.775,3.963,3.961v58.28c0,2.186-1.772,3.959-3.963,3.959
					c-2.184,0-3.959-1.774-3.959-3.959V220.17z"/>
				<path style="fill:none;stroke:#FFFFFF;stroke-width:2;stroke-miterlimit:10;" d="M756.111,220.17
					c0-2.186,1.777-3.961,3.959-3.961c2.189,0,3.961,1.775,3.961,3.961v58.28c0,2.186-1.772,3.959-3.961,3.959
					c-2.183,0-3.959-1.774-3.959-3.959V220.17z"/>
				<path style="fill:none;stroke:#FFFFFF;stroke-width:2;stroke-miterlimit:10;" d="M778.458,220.17
					c0-2.186,1.778-3.961,3.963-3.961c2.188,0,3.961,1.775,3.961,3.961v58.28c0,2.186-1.774,3.959-3.961,3.959
					c-2.184,0-3.963-1.774-3.963-3.959V220.17z"/>
			</g>
		</g>
		<path style="fill:none;stroke:#FFFFFF;stroke-width:2;stroke-miterlimit:10;" d="M1034.832,228.86
			c-4.365,0-7.909,3.545-7.909,7.914c0,4.368,3.544,7.906,7.909,7.906V228.86z"/>
		<g>
			<path style="fill:none;stroke:#FFFFFF;stroke-width:2;stroke-miterlimit:10;" d="M933.228,220.124
				c23.043,0,41.719,18.678,41.719,41.718s-18.676,41.714-41.719,41.714c-23.038,0-41.711-18.675-41.711-41.714
				C891.517,238.802,910.19,220.124,933.228,220.124z"/>
			<path style="fill:none;stroke:#FFFFFF;stroke-width:2;stroke-miterlimit:10;" d="M933.228,233.562
				c15.62,0,28.283,12.66,28.283,28.28c0,15.62-12.664,28.28-28.283,28.28c-15.617,0-28.28-12.66-28.28-28.28
				C904.947,246.223,917.611,233.562,933.228,233.562z"/>
			<path style="fill:none;stroke:#FFFFFF;stroke-width:2;stroke-miterlimit:10;" d="M933.228,239.054
				c12.587,0,22.791,10.203,22.791,22.788c0,12.585-10.206,22.786-22.791,22.786c-12.583,0-22.784-10.203-22.784-22.786
				C910.443,249.258,920.644,239.056,933.228,239.054z"/>
			<path style="fill:none;stroke:#FFFFFF;stroke-width:2;stroke-miterlimit:10;" d="M933.228,248.669
				c7.276,0,13.174,5.897,13.174,13.172c0,7.276-5.898,13.171-13.174,13.171c-7.272,0-13.169-5.897-13.169-13.171
				C920.059,254.566,925.955,248.671,933.228,248.669z"/>
		</g>
		<g>
			<path style="fill:none;stroke:#FFFFFF;stroke-width:2;stroke-miterlimit:10;" d="M629.26,220.124
				c23.041,0,41.718,18.678,41.718,41.718s-18.676,41.714-41.718,41.714c-23.038,0-41.713-18.675-41.713-41.714
				C587.547,238.802,606.222,220.124,629.26,220.124z"/>
			<path style="fill:none;stroke:#FFFFFF;stroke-width:2;stroke-miterlimit:10;" d="M629.26,233.562
				c15.618,0,28.282,12.66,28.282,28.28c0,15.62-12.664,28.28-28.282,28.28s-28.28-12.66-28.28-28.28
				C600.98,246.223,613.641,233.562,629.26,233.562z"/>
			<path style="fill:none;stroke:#FFFFFF;stroke-width:2;stroke-miterlimit:10;" d="M629.261,239.054
				c12.585,0,22.789,10.203,22.789,22.788c0,12.585-10.204,22.786-22.789,22.786c-12.585,0-22.786-10.203-22.786-22.786
				C606.475,249.258,616.676,239.054,629.261,239.054z"/>
			<path style="fill:none;stroke:#FFFFFF;stroke-width:2;stroke-miterlimit:10;" d="M629.261,248.669
				c7.277,0,13.174,5.897,13.174,13.172c0,7.276-5.898,13.171-13.174,13.171c-7.274,0-13.171-5.897-13.171-13.171
				C616.091,254.566,621.987,248.671,629.261,248.669z"/>
		</g>
		<g>
			<path style="fill:none;stroke:#FFFFFF;stroke-width:2;stroke-miterlimit:10;" d="M516.342,220.124
				c23.043,0,41.717,18.678,41.717,41.718s-18.675,41.714-41.717,41.714c-23.038,0-41.713-18.675-41.713-41.714
				C474.629,238.802,493.304,220.124,516.342,220.124z"/>
			<path style="fill:none;stroke:#FFFFFF;stroke-width:2;stroke-miterlimit:10;" d="M516.342,233.562
				c15.62,0,28.283,12.66,28.283,28.28c0,15.62-12.663,28.28-28.283,28.28c-15.618,0-28.279-12.66-28.279-28.28
				C488.064,246.223,500.724,233.562,516.342,233.562z"/>
			<path style="fill:none;stroke:#FFFFFF;stroke-width:2;stroke-miterlimit:10;" d="M516.342,239.054
				c12.587,0,22.791,10.203,22.791,22.788c0,12.585-10.206,22.786-22.791,22.786c-12.583,0-22.786-10.203-22.786-22.786
				C493.556,249.258,503.76,239.056,516.342,239.054z"/>
			<path style="fill:none;stroke:#FFFFFF;stroke-width:2;stroke-miterlimit:10;" d="M516.342,248.669
				c7.277,0,13.174,5.897,13.174,13.172c0,7.276-5.898,13.171-13.174,13.171c-7.273,0-13.169-5.897-13.169-13.171
				C503.173,254.566,509.071,248.671,516.342,248.669z"/>
		</g>
		<g>
			<path style="fill:none;stroke:#FFFFFF;stroke-width:2;stroke-miterlimit:10;" d="M207.456,220.124
				c23.041,0,41.717,18.678,41.717,41.718s-18.676,41.714-41.717,41.714c-23.038,0-41.713-18.675-41.713-41.714
				C165.743,238.802,184.418,220.124,207.456,220.124z"/>
			<path style="fill:none;stroke:#FFFFFF;stroke-width:2;stroke-miterlimit:10;" d="M207.456,233.562
				c15.622,0,28.283,12.66,28.283,28.28c0,15.62-12.662,28.28-28.283,28.28c-15.618,0-28.279-12.66-28.279-28.28
				C179.177,246.223,191.838,233.562,207.456,233.562z"/>
			<path style="fill:none;stroke:#FFFFFF;stroke-width:2;stroke-miterlimit:10;" d="M207.456,239.054
				c12.587,0,22.789,10.203,22.789,22.788c0,12.585-10.204,22.786-22.789,22.786s-22.786-10.203-22.786-22.786
				C184.67,249.258,194.873,239.056,207.456,239.054z"/>
			<path style="fill:none;stroke:#FFFFFF;stroke-width:2;stroke-miterlimit:10;" d="M207.456,248.669
				c7.277,0,13.174,5.897,13.174,13.172c0,7.276-5.898,13.171-13.174,13.171c-7.271,0-13.171-5.897-13.171-13.171
				C194.285,254.566,200.185,248.671,207.456,248.669z"/>
		</g>
		<g>
			<path style="fill:none;stroke:#FFFFFF;stroke-width:2;stroke-miterlimit:10;" d="M95.049,220.124
				c23.045,0,41.719,18.678,41.719,41.718s-18.675,41.714-41.719,41.714c-23.038,0-41.709-18.675-41.709-41.714
				C53.339,238.802,72.011,220.124,95.049,220.124z"/>
			<path style="fill:none;stroke:#FFFFFF;stroke-width:2;stroke-miterlimit:10;" d="M95.049,233.562
				c15.622,0,28.285,12.66,28.285,28.28c0,15.62-12.664,28.28-28.285,28.28c-15.617,0-28.279-12.66-28.279-28.28
				C66.77,246.223,79.432,233.562,95.049,233.562z"/>
			<path style="fill:none;stroke:#FFFFFF;stroke-width:2;stroke-miterlimit:10;" d="M95.049,239.054
				c12.588,0,22.793,10.203,22.793,22.788c0,12.585-10.206,22.786-22.793,22.786c-12.582,0-22.785-10.203-22.785-22.786
				C72.264,249.258,82.467,239.056,95.049,239.054z"/>
			<path style="fill:none;stroke:#FFFFFF;stroke-width:2;stroke-miterlimit:10;" d="M95.049,248.669
				c7.277,0,13.176,5.897,13.176,13.172c0,7.276-5.9,13.171-13.176,13.171c-7.271,0-13.167-5.897-13.167-13.171
				C81.881,254.566,87.779,248.671,95.049,248.669z"/>
		</g>
	</g>
	
		<rect x="26.044" y="204.29" transform="matrix(-1 -4.489621e-11 4.489621e-11 -1 742.1518 413.4604)" style="fill:none;stroke:#FFFFFF;stroke-width:2;stroke-miterlimit:10;" width="690.064" height="4.881"/>
</g>
</svg>
